<?xml version="1.0" encoding="UTF-8" standalone="no"?>
<!DOCTYPE svg PUBLIC "-//W3C//DTD SVG 1.1//EN"
 "http://www.w3.org/Graphics/SVG/1.1/DTD/svg11.dtd">
<!-- Generated by graphviz version 9.0.0 (20230911.1827)
 -->
<!-- Pages: 1 -->
<svg width="714pt" height="925pt"
 viewBox="0.00 0.00 714.40 925.00" xmlns="http://www.w3.org/2000/svg" xmlns:xlink="http://www.w3.org/1999/xlink">
<g id="graph0" class="graph" transform="scale(1 1) rotate(0) translate(144 781)">
<polygon fill="white" stroke="none" points="-144,144 -144,-781 570.4,-781 570.4,144 -144,144"/>
<g id="clust1" class="cluster">
<title>cluster_yape</title>
<path fill="#e5f5fd" stroke="#aeb6be" d="M158.8,-8C158.8,-8 406.4,-8 406.4,-8 412.4,-8 418.4,-14 418.4,-20 418.4,-20 418.4,-617 418.4,-617 418.4,-623 412.4,-629 406.4,-629 406.4,-629 158.8,-629 158.8,-629 152.8,-629 146.8,-623 146.8,-617 146.8,-617 146.8,-20 146.8,-20 146.8,-14 152.8,-8 158.8,-8"/>
<text text-anchor="middle" x="167.92" y="-613.6" font-family="Sans-Serif" font-size="12.00" fill="#2d3436">yape</text>
</g>
<!-- 01a323d5d987497a9c0c295814112f44 -->
<g id="node1" class="node">
<title>01a323d5d987497a9c0c295814112f44</title>
<image xlink:href="/Users/luispessoa/Library/Python/3.9/lib/python/site-packages/resources/onprem/network/nginx.png" width="100.8px" height="100.8px" preserveAspectRatio="xMinYMin meet" x="-2.84217e-14" y="-358.4"/>
<text text-anchor="middle" x="50.4" y="-240.75" font-family="Sans-Serif" font-size="13.00" fill="#2d3436">Nginx</text>
</g>
<!-- 15f99ffc0f884333a0d7df49472a7fcb -->
<g id="node2" class="node">
<title>15f99ffc0f884333a0d7df49472a7fcb</title>
<image xlink:href="/Users/luispessoa/Library/Python/3.9/lib/python/site-packages/resources/azure/compute/kubernetes-services.png" width="100.8px" height="100.8px" preserveAspectRatio="xMinYMin meet" x="154.8" y="-358.4"/>
<text text-anchor="middle" x="205.2" y="-240.75" font-family="Sans-Serif" font-size="13.00" fill="#2d3436">ms&#45;mobile&#45;bff</text>
</g>
<!-- 01a323d5d987497a9c0c295814112f44&#45;&gt;15f99ffc0f884333a0d7df49472a7fcb -->
<g id="edge1" class="edge">
<title>01a323d5d987497a9c0c295814112f44&#45;&gt;15f99ffc0f884333a0d7df49472a7fcb</title>
<path fill="none" stroke="#7b8894" d="M100.66,-308C100.66,-308 143.41,-308 143.41,-308"/>
<polygon fill="#7b8894" stroke="#7b8894" points="143.41,-311.5 153.41,-308 143.41,-304.5 143.41,-311.5"/>
</g>
<!-- 0ca0d986a17944d7a023b3b92b0455bd -->
<g id="node3" class="node">
<title>0ca0d986a17944d7a023b3b92b0455bd</title>
<g id="a_node3"><a xlink:href="https://github.com/yaperos/ms-exchange-rate" xlink:title="description: This is a sample description">
<image xlink:href="/Users/luispessoa/Library/Python/3.9/lib/python/site-packages/resources/azure/compute/kubernetes-services.png" width="100.8px" height="100.8px" preserveAspectRatio="xMinYMin meet" x="309.6" y="-149.4"/>
<text text-anchor="middle" x="360" y="-30.85" font-family="Sans-Serif" font-size="13.00" fill="#2d3436">ms&#45;exchange&#45;rate</text>
<text text-anchor="middle" x="360" y="-17.35" font-family="Sans-Serif" font-size="13.00" fill="#2d3436">this is a description for the service ...</text>
</a>
</g>
</g>
<!-- 15f99ffc0f884333a0d7df49472a7fcb&#45;&gt;0ca0d986a17944d7a023b3b92b0455bd -->
<g id="edge2" class="edge">
<title>15f99ffc0f884333a0d7df49472a7fcb&#45;&gt;0ca0d986a17944d7a023b3b92b0455bd</title>
<path fill="none" stroke="#7b8894" d="M205.4,-239.85C205.4,-178.86 205.4,-99 205.4,-99 205.4,-99 298.29,-99 298.29,-99"/>
<polygon fill="#7b8894" stroke="#7b8894" points="298.29,-102.5 308.29,-99 298.29,-95.5 298.29,-102.5"/>
</g>
<!-- 5f93315ccae54dcfa656f5a6ad85a3e7 -->
<g id="node4" class="node">
<title>5f93315ccae54dcfa656f5a6ad85a3e7</title>
<g id="a_node4"><a xlink:href="https://github.com/yaperos/ms-tap2phone-activacion" xlink:title="description: This is a sample description">
<image xlink:href="/Users/luispessoa/Library/Python/3.9/lib/python/site-packages/resources/azure/compute/kubernetes-services.png" width="100.8px" height="100.8px" preserveAspectRatio="xMinYMin meet" x="309.6" y="-358.4"/>
<text text-anchor="middle" x="360" y="-239.85" font-family="Sans-Serif" font-size="13.00" fill="#2d3436">ms&#45;tap2phone&#45;activacion</text>
<text text-anchor="middle" x="360" y="-226.35" font-family="Sans-Serif" font-size="13.00" fill="#2d3436">this is a description for the service ...</text>
</a>
</g>
</g>
<!-- 15f99ffc0f884333a0d7df49472a7fcb&#45;&gt;5f93315ccae54dcfa656f5a6ad85a3e7 -->
<g id="edge3" class="edge">
<title>15f99ffc0f884333a0d7df49472a7fcb&#45;&gt;5f93315ccae54dcfa656f5a6ad85a3e7</title>
<path fill="none" stroke="#7b8894" d="M255.46,-308C255.46,-308 298.21,-308 298.21,-308"/>
<polygon fill="#7b8894" stroke="#7b8894" points="298.21,-311.5 308.21,-308 298.21,-304.5 298.21,-311.5"/>
</g>
<!-- b59bb21d4967472387509e145bfde94a -->
<g id="node5" class="node">
<title>b59bb21d4967472387509e145bfde94a</title>
<g id="a_node5"><a xlink:href="https://github.com/yaperos/ms-geolocation-bs" xlink:title="description: This is a sample description">
<image xlink:href="/Users/luispessoa/Library/Python/3.9/lib/python/site-packages/resources/azure/compute/kubernetes-services.png" width="100.8px" height="100.8px" preserveAspectRatio="xMinYMin meet" x="309.6" y="-567.4"/>
<text text-anchor="middle" x="360" y="-448.85" font-family="Sans-Serif" font-size="13.00" fill="#2d3436">ms&#45;geolocation&#45;bs</text>
<text text-anchor="middle" x="360" y="-435.35" font-family="Sans-Serif" font-size="13.00" fill="#2d3436">this is a description for the service ...</text>
</a>
</g>
</g>
<!-- 15f99ffc0f884333a0d7df49472a7fcb&#45;&gt;b59bb21d4967472387509e145bfde94a -->
<g id="edge4" class="edge">
<title>15f99ffc0f884333a0d7df49472a7fcb&#45;&gt;b59bb21d4967472387509e145bfde94a</title>
<path fill="none" stroke="#7b8894" d="M205.4,-376.15C205.4,-437.14 205.4,-517 205.4,-517 205.4,-517 298.29,-517 298.29,-517"/>
<polygon fill="#7b8894" stroke="#7b8894" points="298.29,-520.5 308.29,-517 298.29,-513.5 298.29,-520.5"/>
</g>
</g>
</svg>
